<svg width="32" height="31" viewBox="0 0 32 31" fill="none" xmlns="http://www.w3.org/2000/svg">
<path d="M31.8155 18.7543C31.7343 18.4923 31.5709 18.2635 31.3495 18.1017C31.128 17.9399 30.8604 17.8536 30.5862 17.8558L30.2394 17.9188C27.9819 18.542 25.5996 18.5551 23.3353 17.9569C21.0711 17.3587 19.0061 16.1705 17.3509 14.5135C15.6957 12.8566 14.5096 10.7902 13.9136 8.52516C13.3176 6.26013 13.3331 3.87753 13.9583 1.62042C13.9892 1.529 14.0052 1.43319 14.0056 1.33669C14.0206 1.13327 13.9854 0.929286 13.9031 0.742665C13.8208 0.556043 13.6939 0.392501 13.5336 0.266414C13.3732 0.140327 13.1844 0.0555562 12.9837 0.0195525C12.7829 -0.0164513 12.5764 -0.0025851 12.3822 0.0599319C9.73253 0.802697 7.32344 2.22634 5.39463 4.18925C3.46581 6.15215 2.08449 8.58591 1.38807 11.2484C0.691651 13.9109 0.704407 16.7094 1.42507 19.3654C2.14573 22.0215 3.54918 24.4426 5.49581 26.3878C7.44244 28.333 9.8644 29.7346 12.5208 30.4532C15.1772 31.1718 17.9754 31.1823 20.6371 30.4836C23.2987 29.785 25.7311 28.4016 27.6923 26.471C29.6534 24.5404 31.075 22.1299 31.8155 19.4793C31.8948 19.2441 31.8948 18.9894 31.8155 18.7543ZM16.6377 28.4797C13.6179 28.4821 10.6881 27.452 8.33413 25.5603C5.98019 23.6685 4.34365 21.0288 3.69597 18.079C3.04829 15.1292 3.42841 12.0466 4.77326 9.3426C6.11811 6.63855 8.34688 4.47557 11.0898 3.21243C10.7931 5.59134 11.0433 8.00661 11.8215 10.2741C12.5997 12.5416 13.8854 14.6015 15.5804 16.2967C17.2754 17.9918 19.3351 19.2776 21.6023 20.0559C23.8696 20.8342 26.2847 21.0844 28.6633 20.7876C27.597 23.0801 25.8994 25.0212 23.7696 26.3835C21.6398 27.7459 19.1659 28.473 16.6377 28.4797Z" fill="black"/>
</svg>
