<svg width="22" height="23" viewBox="0 0 22 23" fill="none" xmlns="http://www.w3.org/2000/svg">
<path d="M8.125 0.5625C10.2799 0.5625 12.3465 1.41852 13.8702 2.94226C15.394 4.46599 16.25 6.53262 16.25 8.6875C16.25 10.7 15.5125 12.55 14.3 13.975L14.6375 14.3125H15.625L21.875 20.5625L20 22.4375L13.75 16.1875V15.2L13.4125 14.8625C11.9382 16.121 10.0634 16.8124 8.125 16.8125C5.97012 16.8125 3.90349 15.9565 2.37976 14.4327C0.856024 12.909 0 10.8424 0 8.6875C0 6.53262 0.856024 4.46599 2.37976 2.94226C3.90349 1.41852 5.97012 0.5625 8.125 0.5625ZM8.125 3.0625C5 3.0625 2.5 5.5625 2.5 8.6875C2.5 11.8125 5 14.3125 8.125 14.3125C11.25 14.3125 13.75 11.8125 13.75 8.6875C13.75 5.5625 11.25 3.0625 8.125 3.0625Z" fill="#777777"/>
</svg>
