<svg width="36" height="35" viewBox="0 0 36 35" fill="none" xmlns="http://www.w3.org/2000/svg">
<path d="M18.375 30.1C14 30.1 10.1325 27.86 7.875 24.5C7.9275 21 14.875 19.075 18.375 19.075C21.875 19.075 28.8225 21 28.875 24.5C27.7181 26.2227 26.1553 27.6345 24.3242 28.6111C22.4932 29.5876 20.4502 30.0989 18.375 30.1ZM18.375 5.25C19.7674 5.25 21.1027 5.80312 22.0873 6.78769C23.0719 7.77225 23.625 9.10761 23.625 10.5C23.625 11.8924 23.0719 13.2277 22.0873 14.2123C21.1027 15.1969 19.7674 15.75 18.375 15.75C16.9826 15.75 15.6473 15.1969 14.6627 14.2123C13.6781 13.2277 13.125 11.8924 13.125 10.5C13.125 9.10761 13.6781 7.77225 14.6627 6.78769C15.6473 5.80312 16.9826 5.25 18.375 5.25ZM18.375 0C16.0769 0 13.8012 0.452651 11.678 1.33211C9.55484 2.21157 7.62566 3.50061 6.00063 5.12563C2.71874 8.40752 0.875 12.8587 0.875 17.5C0.875 22.1413 2.71874 26.5925 6.00063 29.8744C7.62566 31.4994 9.55484 32.7884 11.678 33.6679C13.8012 34.5473 16.0769 35 18.375 35C23.0163 35 27.4675 33.1563 30.7494 29.8744C34.0313 26.5925 35.875 22.1413 35.875 17.5C35.875 7.8225 28 0 18.375 0Z" fill="black"/>
</svg>
